# xmcd CD database file
#
# Track frame offsets:
#	150
#	14150
#	24037
#	34935
#	45562
#	56625
#	69325
#	83075
#	93912
#	106207
#	112815
#	124700
#	135625
#	148065
#
# Disc length: 2154 seconds
#
# Revision: 0
# Processed by: cddbd v1.5.1PL2 Copyright (c) Steve Scherf et al.
# Submitted via: CDex 1.51
#
DISCID=b208680e
DTITLE=ナンシー梅木 - Miyoshi Sings For Arthur Godfrey
DYEAR=1956
DGENRE=Jazz
TTITLE0=If I Give My Heart To You
TTITLE1=China Nights (Shina No Yoru)
TTITLE2=I'm In The Mood For Love
TTITLE3=My Baby's Comin' Home
TTITLE4=How Deep Is The Ocean
TTITLE5=Slowly Go Out Of Your Mind
TTITLE6=Teach Me Tonight
TTITLE7=Hanna Ko San
TTITLE8=Can't Help Lovin' Dat Man
TTITLE9=S'Wonderful
TTITLE10=Over The Rainbow
TTITLE11=Sayonara (The Japanese Farewell Song)
TTITLE12=Sayonara (Theme of the film "Sayonara")
TTITLE13=The Little Lost Dog
EXTD=YEAR: 1956
EXTT0=
EXTT1=
EXTT2=
EXTT3=
EXTT4=
EXTT5=
EXTT6=
EXTT7=
EXTT8=
EXTT9=
EXTT10=
EXTT11=
EXTT12=
EXTT13=
PLAYORDER=
